# 3ds Max Wavefront OBJ Exporter v0.97b - (c)2007 guruware
# File Created: 12.09.2020 19:47:15

mtllib Bench Export.mtl

#
# object Bench_001
#

v  -14198.3008 660.6411 1883.3800
v  -14032.8496 660.6411 1883.3800
v  -14032.8496 660.6411 1791.5763
v  -14198.3008 660.6411 1791.5763
v  -14032.8496 211.2142 1937.3613
v  -14032.8496 293.3038 1928.1698
v  -14198.3008 0.0000 1961.0107
v  -14032.8496 293.3038 1836.3662
v  -14032.8496 0.0000 1961.0107
v  -14032.8496 0.0000 1869.2070
v  -14032.8496 211.2142 1845.5576
v  -14198.3008 293.3038 1836.3662
v  -14198.3008 0.0000 1869.2070
v  -14198.3008 211.2142 1845.5576
v  -10833.7578 211.2142 1845.5576
v  -10833.7578 0.0000 1869.2070
v  -10999.2090 0.0000 1869.2070
v  -10999.2090 211.2142 1845.5576
v  -10999.2090 293.3038 1928.1698
v  -10999.2090 660.6411 1883.3800
v  -10999.2090 660.6411 1791.5763
v  -10999.2090 293.3038 1836.3662
v  -10999.2090 0.0000 1961.0107
v  -10999.2090 211.2143 1937.3613
v  -14032.8496 293.3038 1373.8174
v  -14032.8496 660.6411 1389.4720
v  -14198.3008 660.6411 1389.4720
v  -14198.3008 293.3038 1373.8174
v  -14198.3008 211.2143 1370.6047
v  -14198.3008 0.0000 1362.3391
v  -14032.8496 0.0000 1362.3391
v  -14032.8496 211.2142 1370.6049
v  -14032.8496 293.3038 1282.0137
v  -14032.8496 660.6411 1297.6683
v  -14032.8496 0.0000 1270.5354
v  -14032.8496 211.2142 1278.8013
v  -14198.3008 660.6411 1297.6683
v  -10999.2090 211.2143 1370.6049
v  -10999.2090 0.0000 1362.3391
v  -10833.7578 0.0000 1362.3391
v  -10833.7578 211.2144 1370.6050
v  -10999.2090 293.3038 1373.8174
v  -10999.2090 660.6411 1389.4720
v  -10999.2090 660.6411 1297.6683
v  -10999.2090 293.3038 1282.0137
v  -10999.2090 211.2142 1278.8013
v  -10999.2090 0.0000 1270.5354
v  -14555.7754 660.6411 1928.7000
v  -10594.3008 660.6411 1928.7000
v  -14555.7754 772.5669 1928.7000
v  -10833.7578 660.6411 1389.4720
v  -10833.7578 660.6411 1297.6683
v  -10594.3008 660.6411 1239.3384
v  -10594.3008 772.5669 1928.7000
v  -14555.7754 772.5669 1239.3384
v  -14555.7754 660.6411 1239.3384
v  -10833.7578 293.3038 1373.8176
v  -10833.7578 293.3038 1836.3662
v  -10833.7578 660.6411 1883.3800
v  -10833.7578 660.6411 1791.5763
v  -10833.7578 0.0000 1961.0107
v  -10833.7578 0.0000 1270.5354
v  -14198.3008 0.0000 1270.5354
v  -10594.3008 772.5669 1239.3384
# 64 vertices

vn -0.5841 0.6074 0.5384
vn 0.5840 0.6077 0.5381
vn 0.5712 0.5441 -0.6145
vn -0.5712 0.5441 -0.6145
vn 0.3308 -0.2058 0.9210
vn 0.2614 0.3949 0.8807
vn -0.5720 -0.5461 0.6121
vn 0.6284 0.5171 -0.5811
vn 0.5718 -0.5470 0.6115
vn 0.5835 -0.6054 -0.5413
vn 0.5289 -0.6326 -0.5657
vn -0.9184 0.2623 -0.2962
vn -0.5835 -0.6054 -0.5413
vn -0.8912 -0.3381 -0.3023
vn 0.8912 -0.3381 -0.3023
vn -0.5289 -0.6327 -0.5657
vn -0.2614 0.3949 0.8807
vn -0.5840 0.6077 0.5381
vn -0.6284 0.5171 -0.5811
vn -0.5717 -0.5469 0.6116
vn -0.3308 -0.2058 0.9210
vn 0.5952 0.5565 0.5797
vn 0.5751 0.5660 0.5906
vn -0.5751 0.5660 0.5906
vn -0.9095 0.2877 0.3002
vn -0.8999 -0.3143 0.3023
vn -0.5794 -0.5875 0.5649
vn 0.5795 -0.5875 0.5648
vn 0.5602 -0.5970 0.5742
vn 0.2873 0.3348 -0.8974
vn 0.5796 0.5883 -0.5638
vn 0.5754 -0.5670 -0.5895
vn 0.3116 -0.2684 -0.9115
vn -0.5797 0.5882 -0.5639
vn -0.5602 -0.5970 0.5742
vn 0.5794 -0.5875 0.5649
vn 0.8999 -0.3143 0.3023
vn -0.5953 0.5565 0.5796
vn -0.5796 0.5883 -0.5638
vn -0.2873 0.3348 -0.8974
vn -0.3116 -0.2684 -0.9115
vn -0.5754 -0.5670 -0.5895
vn -0.5774 -0.5774 0.5774
vn 0.5774 -0.5774 0.5774
vn -0.5774 0.5774 0.5774
vn 0.5797 0.5882 -0.5639
vn 0.5774 -0.5774 -0.5774
vn 0.5774 0.5774 0.5774
vn -0.5774 0.5774 -0.5774
vn -0.5774 -0.5774 -0.5774
vn 0.9095 0.2877 0.3002
vn 0.9184 0.2623 -0.2962
vn 0.5841 0.6074 0.5384
vn 0.5720 -0.5461 0.6121
vn 0.5754 -0.5667 -0.5897
vn -0.5754 -0.5667 -0.5897
vn 0.5774 0.5774 -0.5774
# 57 vertex normals

vt 0.4286 0.8991 0.0000
vt 0.4286 0.9374 0.0000
vt 0.4084 0.9374 0.0000
vt 0.4084 0.8991 0.0000
vt 0.5332 0.9374 0.0000
vt 0.5142 0.9374 0.0000
vt 0.5824 0.8991 0.0000
vt 0.5142 0.9586 0.0000
vt 0.4286 0.9586 0.0000
vt 0.5824 0.9374 0.0000
vt 0.5824 0.9586 0.0000
vt 0.5332 0.9586 0.0000
vt 0.5142 0.8779 0.0000
vt 0.4286 0.8779 0.0000
vt 0.4286 0.8395 0.0000
vt 0.5142 0.8395 0.0000
vt 0.5332 0.8395 0.0000
vt 0.5824 0.8395 0.0000
vt 0.5824 0.8779 0.0000
vt 0.5332 0.8779 0.0000
vt 0.3285 0.9001 0.0000
vt 0.3777 0.9001 0.0000
vt 0.3777 0.9385 0.0000
vt 0.3285 0.9385 0.0000
vt 0.3094 0.8406 0.0000
vt 0.2240 0.8406 0.0000
vt 0.2303 0.8194 0.0000
vt 0.3094 0.8194 0.0000
vt 0.3285 0.8194 0.0000
vt 0.3777 0.8194 0.0000
vt 0.3777 0.8406 0.0000
vt 0.3285 0.8406 0.0000
vt 0.3094 0.7812 0.0000
vt 0.2239 0.7812 0.0000
vt 0.2239 0.7429 0.0000
vt 0.3094 0.7429 0.0000
vt 0.3285 0.7429 0.0000
vt 0.3777 0.7429 0.0000
vt 0.3777 0.7812 0.0000
vt 0.3285 0.7812 0.0000
vt 0.3094 0.6832 0.0000
vt 0.2239 0.6832 0.0000
vt 0.2239 0.6619 0.0000
vt 0.3094 0.6619 0.0000
vt 0.3285 0.6619 0.0000
vt 0.3777 0.6619 0.0000
vt 0.3777 0.6832 0.0000
vt 0.3285 0.6832 0.0000
vt 0.2239 0.7216 0.0000
vt 0.5332 0.6925 0.0000
vt 0.5824 0.6925 0.0000
vt 0.5824 0.7309 0.0000
vt 0.5310 0.7309 0.0000
vt 0.5142 0.8118 0.0000
vt 0.4286 0.8118 0.0000
vt 0.4286 0.7905 0.0000
vt 0.5142 0.7905 0.0000
vt 0.5332 0.7905 0.0000
vt 0.5824 0.7905 0.0000
vt 0.5824 0.8118 0.0000
vt 0.5332 0.8118 0.0000
vt 0.0458 0.5409 0.0000
vt 0.0458 0.5217 0.0000
vt 0.7495 0.5217 0.0000
vt 0.7495 0.5409 0.0000
vt 0.0458 0.6216 0.0000
vt 0.0458 0.6040 0.0000
vt 0.7495 0.6040 0.0000
vt 0.7495 0.6216 0.0000
vt 0.0394 0.2341 0.0000
vt 0.9612 0.2341 0.0000
vt 0.0394 0.2602 0.0000
vt 0.4084 0.7522 0.0000
vt 0.4286 0.7522 0.0000
vt 0.4084 0.7905 0.0000
vt 0.9896 0.4201 0.0000
vt 0.9612 0.2602 0.0000
vt 0.9896 0.2602 0.0000
vt 0.0113 0.2602 0.0000
vt 0.0394 0.4201 0.0000
vt 0.0113 0.4201 0.0000
vt 0.8223 0.8801 0.0000
vt 0.9313 0.8801 0.0000
vt 0.9313 0.8992 0.0000
vt 0.8223 0.8991 0.0000
vt 0.8223 0.8229 0.0000
vt 0.9313 0.8229 0.0000
vt 0.9313 0.8420 0.0000
vt 0.8223 0.8420 0.0000
vt 0.2287 0.8790 0.0000
vt 0.2037 0.8790 0.0000
vt 0.2037 0.8406 0.0000
vt 0.3777 0.8790 0.0000
vt 0.5078 0.7309 0.0000
vt 0.4286 0.7309 0.0000
vt 0.4286 0.6925 0.0000
vt 0.5142 0.6925 0.0000
vt 0.9313 0.7843 0.0000
vt 0.8223 0.7843 0.0000
vt 0.5824 0.7522 0.0000
vt 0.3777 0.7216 0.0000
vt 0.6046 0.7522 0.0000
vt 0.6046 0.7905 0.0000
vt 0.6046 0.8991 0.0000
vt 0.6046 0.9374 0.0000
vt 0.3999 0.8406 0.0000
vt 0.3999 0.8790 0.0000
vt 0.0458 0.5622 0.0000
vt 0.7495 0.5622 0.0000
vt 0.7495 0.5827 0.0000
vt 0.0458 0.5827 0.0000
vt 0.7495 0.6429 0.0000
vt 0.0458 0.6429 0.0000
vt 0.0458 0.4812 0.0000
vt 0.7495 0.4812 0.0000
vt 0.7495 0.5004 0.0000
vt 0.0458 0.5004 0.0000
vt 0.0458 0.4599 0.0000
vt 0.7495 0.4599 0.0000
vt 0.8010 0.8991 0.0000
vt 0.6917 0.8991 0.0000
vt 0.6917 0.8801 0.0000
vt 0.8010 0.8801 0.0000
vt 0.6917 0.8436 0.0000
vt 0.6917 0.8246 0.0000
vt 0.8010 0.8246 0.0000
vt 0.8010 0.8436 0.0000
vt 0.6917 0.7843 0.0000
vt 0.8010 0.7843 0.0000
vt 0.2037 0.7216 0.0000
vt 0.2037 0.6832 0.0000
vt 0.3999 0.6832 0.0000
vt 0.3999 0.7216 0.0000
vt 0.0394 0.0742 0.0000
vt 0.9612 0.0742 0.0000
vt 0.0394 0.0482 0.0000
vt 0.9612 0.0482 0.0000
vt 0.3094 0.9001 0.0000
vt 0.2303 0.9385 0.0000
vt 0.2239 0.9001 0.0000
vt 0.3094 0.9385 0.0000
vt 0.9614 0.4205 0.0000
# 142 texture coords

o Bench_001
g Bench_001
usemtl Bench_Realistic
s 4
f 1/1/1 2/2/2 3/3/3 4/4/4 
s 8
f 5/5/5 6/6/6 1/1/1 7/7/7 
s 24
f 8/8/8 3/9/3 2/2/2 6/6/6 
s 16
f 5/5/5 9/10/9 10/11/10 11/12/11 
s 32
f 12/13/12 4/14/4 3/15/3 8/16/8 
f 11/17/11 10/18/10 13/19/13 14/20/14 
f 15/21/15 16/22/10 17/23/13 18/24/16 
s 64
f 19/25/17 20/26/18 21/27/4 22/28/19 
f 18/29/16 17/30/13 23/31/20 24/32/21 
s 8
f 25/33/22 26/34/23 27/35/24 28/36/25 
f 29/37/26 30/38/27 31/39/28 32/40/29 
s 16
f 33/41/30 34/42/31 26/43/23 25/44/22 
f 32/45/29 31/46/28 35/47/32 36/48/33 
s 64
f 28/36/25 27/35/24 37/49/34 
s 8
f 38/50/35 39/51/27 40/52/36 41/53/37 
s 64
f 42/54/38 43/55/24 44/56/39 45/57/40 
f 46/58/41 47/59/42 39/60/27 38/61/35 
s 132
f 11/62/11 8/63/8 22/64/19 18/65/16 
f 36/66/33 33/67/30 45/68/40 46/69/41 
s 8
f 48/70/43 49/71/44 50/72/45 
s off
f 51/73/23 52/74/46 44/56/39 43/75/24 
s 16
f 53/76/47 54/77/48 49/78/44 
s 64
f 48/79/43 50/72/45 55/80/49 
f 48/79/43 55/80/49 56/81/50 
s 1
f 22/82/19 42/83/38 38/84/35 18/85/16 
f 15/86/15 41/87/37 57/88/51 58/89/52 
s 2
f 58/89/52 57/88/51 42/83/38 22/82/19 
s 4
f 20/26/18 59/90/53 60/91/3 21/92/4 
s 8
f 61/93/54 59/90/53 19/25/17 24/32/21 
f 23/31/20 61/93/54 24/32/21 
f 57/94/51 51/95/23 43/96/24 42/97/38 
s 32
f 44/56/39 52/74/46 45/57/40 
s 2
f 38/98/35 41/87/37 15/86/15 18/99/16 
s 16
f 40/52/36 62/100/55 41/53/37 
s 64
f 30/38/27 29/37/26 63/101/56 
s 16
f 51/95/23 57/94/51 52/74/46 
s off
f 62/100/55 40/102/36 39/103/27 47/59/42 
s 2
f 7/7/7 13/104/13 10/105/10 9/10/9 
f 23/31/20 17/106/13 16/107/10 61/93/54 
s 4
f 32/108/29 38/109/35 42/110/38 25/111/22 
s 128
f 36/66/33 46/69/41 38/112/35 32/113/29 
f 25/111/22 42/110/38 45/68/40 33/67/30 
s 4
f 5/114/5 24/115/21 19/116/17 6/117/6 
s 128
f 11/118/11 18/119/16 24/115/21 5/114/5 
f 6/117/6 19/116/17 22/64/19 8/63/8 
s 64
f 7/7/7 14/20/14 13/19/13 
s 1
f 11/120/11 32/121/29 25/122/22 8/123/8 
s 64
f 29/37/26 28/36/25 37/49/34 63/101/56 
s 32
f 52/74/46 62/100/55 46/58/41 45/57/40 
s 64
f 12/13/12 14/20/14 7/7/7 1/1/1 
s 1
f 28/124/25 29/125/26 14/126/14 12/127/12 
s 2
f 29/125/26 32/128/29 11/129/11 14/126/14 
f 28/124/25 12/127/12 8/123/8 25/122/22 
s 32
f 35/47/32 63/101/56 36/48/33 
s off
f 34/42/31 37/49/34 27/130/24 26/131/23 
s 32
f 34/42/31 33/41/30 37/49/34 
s off
f 63/101/56 35/47/32 31/132/28 30/133/27 
s 2
f 49/71/44 48/70/43 56/134/50 
s 8
f 54/77/48 50/72/45 49/71/44 
s 2
f 56/134/50 53/135/47 49/71/44 
s 32
f 55/136/49 64/137/57 56/134/50 
f 64/137/57 53/135/47 56/134/50 
s 16
f 58/138/52 59/90/53 61/93/54 15/21/15 
s 32
f 21/139/4 60/140/3 58/138/52 22/141/19 
f 33/41/30 36/48/33 63/101/56 37/49/34 
s 64
f 4/14/4 12/13/12 1/1/1 
s 24
f 1/1/1 6/6/6 2/2/2 
s 16
f 64/142/57 54/77/48 53/76/47 
s 4
f 50/72/45 54/77/48 55/80/49 
f 55/80/49 54/77/48 64/142/57 
s 8
f 7/7/7 9/10/9 5/5/5 
s 16
f 62/100/55 52/74/46 57/94/51 41/53/37 
f 61/93/54 16/22/10 15/21/15 
s 8
f 59/90/53 20/26/18 19/25/17 
s 16
f 58/138/52 60/140/3 59/90/53 
s 32
f 62/100/55 47/59/42 46/58/41 
# 48 polygons - 28 triangles

#
# object Bench_002
#

v  -14198.3008 660.6411 -245.9115
v  -14032.8496 660.6411 -245.9115
v  -14032.8496 660.6411 -337.7152
v  -14198.3008 660.6411 -337.7152
v  -14032.8496 211.2142 -191.9302
v  -14032.8496 293.3038 -201.1217
v  -14198.3008 0.0000 -168.2808
v  -14032.8496 293.3038 -292.9254
v  -14032.8496 0.0000 -168.2808
v  -14032.8496 0.0000 -260.0844
v  -14032.8496 211.2142 -283.7339
v  -14198.3008 293.3038 -292.9254
v  -14198.3008 0.0000 -260.0844
v  -14198.3008 211.2142 -283.7339
v  -10833.7578 211.2142 -283.7339
v  -10833.7578 0.0000 -260.0844
v  -10999.2090 0.0000 -260.0844
v  -10999.2090 211.2142 -283.7339
v  -10999.2090 293.3038 -201.1217
v  -10999.2090 660.6411 -245.9115
v  -10999.2090 660.6411 -337.7152
v  -10999.2090 293.3038 -292.9254
v  -10999.2090 0.0000 -168.2808
v  -10999.2090 211.2143 -191.9302
v  -14032.8496 293.3038 -755.4741
v  -14032.8496 660.6411 -739.8195
v  -14198.3008 660.6411 -739.8195
v  -14198.3008 293.3038 -755.4741
v  -14198.3008 211.2143 -758.6867
v  -14198.3008 0.0000 -766.9524
v  -14032.8496 0.0000 -766.9524
v  -14032.8496 211.2142 -758.6866
v  -14032.8496 293.3038 -847.2778
v  -14032.8496 660.6411 -831.6232
v  -14032.8496 0.0000 -858.7561
v  -14032.8496 211.2142 -850.4903
v  -14198.3008 660.6411 -831.6232
v  -10999.2090 211.2143 -758.6866
v  -10999.2090 0.0000 -766.9524
v  -10833.7578 0.0000 -766.9524
v  -10833.7578 211.2144 -758.6866
v  -10999.2090 293.3038 -755.4741
v  -10999.2090 660.6411 -739.8195
v  -10999.2090 660.6411 -831.6232
v  -10999.2090 293.3038 -847.2778
v  -10999.2090 211.2142 -850.4903
v  -10999.2090 0.0000 -858.7561
v  -14555.7754 660.6411 -200.5916
v  -10594.3008 660.6411 -200.5916
v  -14555.7754 772.5669 -200.5916
v  -10833.7578 660.6411 -739.8195
v  -10833.7578 660.6411 -831.6232
v  -10594.3008 660.6411 -889.9531
v  -10594.3008 772.5669 -200.5916
v  -14555.7754 772.5669 -889.9531
v  -14555.7754 660.6411 -889.9531
v  -10833.7578 293.3038 -755.4739
v  -10833.7578 293.3038 -292.9254
v  -10833.7578 660.6411 -245.9115
v  -10833.7578 660.6411 -337.7152
v  -10833.7578 0.0000 -168.2808
v  -10833.7578 0.0000 -858.7561
v  -14198.3008 0.0000 -858.7561
v  -10594.3008 772.5669 -889.9531
# 64 vertices

vn -0.5841 0.6074 0.5384
vn 0.5840 0.6077 0.5381
vn 0.5712 0.5441 -0.6145
vn -0.5712 0.5441 -0.6145
vn 0.3308 -0.2058 0.9210
vn 0.2614 0.3949 0.8807
vn -0.5720 -0.5461 0.6121
vn 0.6284 0.5171 -0.5811
vn 0.5718 -0.5470 0.6115
vn 0.5835 -0.6054 -0.5413
vn 0.5289 -0.6326 -0.5657
vn -0.9184 0.2623 -0.2962
vn -0.5835 -0.6054 -0.5413
vn -0.8912 -0.3381 -0.3023
vn 0.8912 -0.3381 -0.3023
vn -0.5289 -0.6327 -0.5657
vn -0.2614 0.3949 0.8807
vn -0.5840 0.6077 0.5381
vn -0.6284 0.5171 -0.5811
vn -0.5717 -0.5469 0.6116
vn -0.3308 -0.2058 0.9210
vn 0.5952 0.5565 0.5797
vn 0.5751 0.5660 0.5906
vn -0.5751 0.5660 0.5906
vn -0.9095 0.2877 0.3002
vn -0.8999 -0.3143 0.3023
vn -0.5794 -0.5875 0.5649
vn 0.5795 -0.5875 0.5648
vn 0.5602 -0.5970 0.5742
vn 0.2873 0.3348 -0.8974
vn 0.5796 0.5883 -0.5638
vn 0.5754 -0.5670 -0.5895
vn 0.3116 -0.2684 -0.9115
vn -0.5797 0.5882 -0.5639
vn -0.5602 -0.5970 0.5742
vn 0.5794 -0.5875 0.5649
vn 0.8999 -0.3143 0.3023
vn -0.5953 0.5565 0.5796
vn -0.5796 0.5883 -0.5638
vn -0.2873 0.3348 -0.8974
vn -0.3116 -0.2684 -0.9115
vn -0.5754 -0.5670 -0.5895
vn -0.5774 -0.5774 0.5774
vn 0.5774 -0.5774 0.5774
vn -0.5774 0.5774 0.5774
vn 0.5797 0.5882 -0.5639
vn 0.5774 -0.5774 -0.5774
vn 0.5774 0.5774 0.5774
vn -0.5774 0.5774 -0.5774
vn -0.5774 -0.5774 -0.5774
vn 0.9095 0.2877 0.3002
vn 0.9184 0.2623 -0.2962
vn 0.5841 0.6074 0.5384
vn 0.5720 -0.5461 0.6121
vn 0.5754 -0.5667 -0.5897
vn -0.5754 -0.5667 -0.5897
vn 0.5774 0.5774 -0.5774
# 57 vertex normals

vt 0.4286 0.8991 0.0000
vt 0.4286 0.9374 0.0000
vt 0.4084 0.9374 0.0000
vt 0.4084 0.8991 0.0000
vt 0.5332 0.9374 0.0000
vt 0.5142 0.9374 0.0000
vt 0.5824 0.8991 0.0000
vt 0.5142 0.9586 0.0000
vt 0.4286 0.9586 0.0000
vt 0.5824 0.9374 0.0000
vt 0.5824 0.9586 0.0000
vt 0.5332 0.9586 0.0000
vt 0.5142 0.8779 0.0000
vt 0.4286 0.8779 0.0000
vt 0.4286 0.8395 0.0000
vt 0.5142 0.8395 0.0000
vt 0.5332 0.8395 0.0000
vt 0.5824 0.8395 0.0000
vt 0.5824 0.8779 0.0000
vt 0.5332 0.8779 0.0000
vt 0.3285 0.9001 0.0000
vt 0.3777 0.9001 0.0000
vt 0.3777 0.9385 0.0000
vt 0.3285 0.9385 0.0000
vt 0.3094 0.8406 0.0000
vt 0.2240 0.8406 0.0000
vt 0.2303 0.8194 0.0000
vt 0.3094 0.8194 0.0000
vt 0.3285 0.8194 0.0000
vt 0.3777 0.8194 0.0000
vt 0.3777 0.8406 0.0000
vt 0.3285 0.8406 0.0000
vt 0.3094 0.7812 0.0000
vt 0.2239 0.7812 0.0000
vt 0.2239 0.7429 0.0000
vt 0.3094 0.7429 0.0000
vt 0.3285 0.7429 0.0000
vt 0.3777 0.7429 0.0000
vt 0.3777 0.7812 0.0000
vt 0.3285 0.7812 0.0000
vt 0.3094 0.6832 0.0000
vt 0.2239 0.6832 0.0000
vt 0.2239 0.6619 0.0000
vt 0.3094 0.6619 0.0000
vt 0.3285 0.6619 0.0000
vt 0.3777 0.6619 0.0000
vt 0.3777 0.6832 0.0000
vt 0.3285 0.6832 0.0000
vt 0.2239 0.7216 0.0000
vt 0.5332 0.6925 0.0000
vt 0.5824 0.6925 0.0000
vt 0.5824 0.7309 0.0000
vt 0.5310 0.7309 0.0000
vt 0.5142 0.8118 0.0000
vt 0.4286 0.8118 0.0000
vt 0.4286 0.7905 0.0000
vt 0.5142 0.7905 0.0000
vt 0.5332 0.7905 0.0000
vt 0.5824 0.7905 0.0000
vt 0.5824 0.8118 0.0000
vt 0.5332 0.8118 0.0000
vt 0.0458 0.5409 0.0000
vt 0.0458 0.5217 0.0000
vt 0.7495 0.5217 0.0000
vt 0.7495 0.5409 0.0000
vt 0.0458 0.6216 0.0000
vt 0.0458 0.6040 0.0000
vt 0.7495 0.6040 0.0000
vt 0.7495 0.6216 0.0000
vt 0.0394 0.2341 0.0000
vt 0.9612 0.2341 0.0000
vt 0.0394 0.2602 0.0000
vt 0.4084 0.7522 0.0000
vt 0.4286 0.7522 0.0000
vt 0.4084 0.7905 0.0000
vt 0.9896 0.4201 0.0000
vt 0.9612 0.2602 0.0000
vt 0.9896 0.2602 0.0000
vt 0.0113 0.2602 0.0000
vt 0.0394 0.4201 0.0000
vt 0.0113 0.4201 0.0000
vt 0.8223 0.8801 0.0000
vt 0.9313 0.8801 0.0000
vt 0.9313 0.8992 0.0000
vt 0.8223 0.8991 0.0000
vt 0.8223 0.8229 0.0000
vt 0.9313 0.8229 0.0000
vt 0.9313 0.8420 0.0000
vt 0.8223 0.8420 0.0000
vt 0.2287 0.8790 0.0000
vt 0.2037 0.8790 0.0000
vt 0.2037 0.8406 0.0000
vt 0.3777 0.8790 0.0000
vt 0.5078 0.7309 0.0000
vt 0.4286 0.7309 0.0000
vt 0.4286 0.6925 0.0000
vt 0.5142 0.6925 0.0000
vt 0.9313 0.7843 0.0000
vt 0.8223 0.7843 0.0000
vt 0.5824 0.7522 0.0000
vt 0.3777 0.7216 0.0000
vt 0.6046 0.7522 0.0000
vt 0.6046 0.7905 0.0000
vt 0.6046 0.8991 0.0000
vt 0.6046 0.9374 0.0000
vt 0.3999 0.8406 0.0000
vt 0.3999 0.8790 0.0000
vt 0.0458 0.5622 0.0000
vt 0.7495 0.5622 0.0000
vt 0.7495 0.5827 0.0000
vt 0.0458 0.5827 0.0000
vt 0.7495 0.6429 0.0000
vt 0.0458 0.6429 0.0000
vt 0.0458 0.4812 0.0000
vt 0.7495 0.4812 0.0000
vt 0.7495 0.5004 0.0000
vt 0.0458 0.5004 0.0000
vt 0.0458 0.4599 0.0000
vt 0.7495 0.4599 0.0000
vt 0.8010 0.8991 0.0000
vt 0.6917 0.8991 0.0000
vt 0.6917 0.8801 0.0000
vt 0.8010 0.8801 0.0000
vt 0.6917 0.8436 0.0000
vt 0.6917 0.8246 0.0000
vt 0.8010 0.8246 0.0000
vt 0.8010 0.8436 0.0000
vt 0.6917 0.7843 0.0000
vt 0.8010 0.7843 0.0000
vt 0.2037 0.7216 0.0000
vt 0.2037 0.6832 0.0000
vt 0.3999 0.6832 0.0000
vt 0.3999 0.7216 0.0000
vt 0.0394 0.0742 0.0000
vt 0.9612 0.0742 0.0000
vt 0.0394 0.0482 0.0000
vt 0.9612 0.0482 0.0000
vt 0.3094 0.9001 0.0000
vt 0.2303 0.9385 0.0000
vt 0.2239 0.9001 0.0000
vt 0.3094 0.9385 0.0000
vt 0.9614 0.4205 0.0000
# 142 texture coords

o Bench_002
g Bench_002
usemtl Bench_Semi_Realistic
s 4
f 65/143/58 66/144/59 67/145/60 68/146/61 
s 8
f 69/147/62 70/148/63 65/143/58 71/149/64 
s 24
f 72/150/65 67/151/60 66/144/59 70/148/63 
s 16
f 69/147/62 73/152/66 74/153/67 75/154/68 
s 32
f 76/155/69 68/156/61 67/157/60 72/158/65 
f 75/159/68 74/160/67 77/161/70 78/162/71 
f 79/163/72 80/164/67 81/165/70 82/166/73 
s 64
f 83/167/74 84/168/75 85/169/61 86/170/76 
f 82/171/73 81/172/70 87/173/77 88/174/78 
s 8
f 89/175/79 90/176/80 91/177/81 92/178/82 
f 93/179/83 94/180/84 95/181/85 96/182/86 
s 16
f 97/183/87 98/184/88 90/185/80 89/186/79 
f 96/187/86 95/188/85 99/189/89 100/190/90 
s 64
f 92/178/82 91/177/81 101/191/91 
s 8
f 102/192/92 103/193/84 104/194/93 105/195/94 
s 64
f 106/196/95 107/197/81 108/198/96 109/199/97 
f 110/200/98 111/201/99 103/202/84 102/203/92 
s 132
f 75/204/68 72/205/65 86/206/76 82/207/73 
f 100/208/90 97/209/87 109/210/97 110/211/98 
s 8
f 112/212/100 113/213/101 114/214/102 
s off
f 115/215/80 116/216/103 108/198/96 107/217/81 
s 16
f 117/218/104 118/219/105 113/220/101 
s 64
f 112/221/100 114/214/102 119/222/106 
f 112/221/100 119/222/106 120/223/107 
s 1
f 86/224/76 106/225/95 102/226/92 82/227/73 
f 79/228/72 105/229/94 121/230/108 122/231/109 
s 2
f 122/231/109 121/230/108 106/225/95 86/224/76 
s 4
f 84/168/75 123/232/110 124/233/60 85/234/61 
s 8
f 125/235/111 123/232/110 83/167/74 88/174/78 
f 87/173/77 125/235/111 88/174/78 
f 121/236/108 115/237/80 107/238/81 106/239/95 
s 32
f 108/198/96 116/216/103 109/199/97 
s 2
f 102/240/92 105/229/94 79/228/72 82/241/73 
s 16
f 104/194/93 126/242/112 105/195/94 
s 64
f 94/180/84 93/179/83 127/243/113 
s 16
f 115/237/80 121/236/108 116/216/103 
s off
f 126/242/112 104/244/93 103/245/84 111/201/99 
s 2
f 71/149/64 77/246/70 74/247/67 73/152/66 
f 87/173/77 81/248/70 80/249/67 125/235/111 
s 4
f 96/250/86 102/251/92 106/252/95 89/253/79 
s 128
f 100/208/90 110/211/98 102/254/92 96/255/86 
f 89/253/79 106/252/95 109/210/97 97/209/87 
s 4
f 69/256/62 88/257/78 83/258/74 70/259/63 
s 128
f 75/260/68 82/261/73 88/257/78 69/256/62 
f 70/259/63 83/258/74 86/206/76 72/205/65 
s 64
f 71/149/64 78/162/71 77/161/70 
s 1
f 75/262/68 96/263/86 89/264/79 72/265/65 
s 64
f 93/179/83 92/178/82 101/191/91 127/243/113 
s 32
f 116/216/103 126/242/112 110/200/98 109/199/97 
s 64
f 76/155/69 78/162/71 71/149/64 65/143/58 
s 1
f 92/266/82 93/267/83 78/268/71 76/269/69 
s 2
f 93/267/83 96/270/86 75/271/68 78/268/71 
f 92/266/82 76/269/69 72/265/65 89/264/79 
s 32
f 99/189/89 127/243/113 100/190/90 
s off
f 98/184/88 101/191/91 91/272/81 90/273/80 
s 32
f 98/184/88 97/183/87 101/191/91 
s off
f 127/243/113 99/189/89 95/274/85 94/275/84 
s 2
f 113/213/101 112/212/100 120/276/107 
s 8
f 118/219/105 114/214/102 113/213/101 
s 2
f 120/276/107 117/277/104 113/213/101 
s 32
f 119/278/106 128/279/114 120/276/107 
f 128/279/114 117/277/104 120/276/107 
s 16
f 122/280/109 123/232/110 125/235/111 79/163/72 
s 32
f 85/281/61 124/282/60 122/280/109 86/283/76 
f 97/183/87 100/190/90 127/243/113 101/191/91 
s 64
f 68/156/61 76/155/69 65/143/58 
s 24
f 65/143/58 70/148/63 66/144/59 
s 16
f 128/284/114 118/219/105 117/218/104 
s 4
f 114/214/102 118/219/105 119/222/106 
f 119/222/106 118/219/105 128/284/114 
s 8
f 71/149/64 73/152/66 69/147/62 
s 16
f 126/242/112 116/216/103 121/236/108 105/195/94 
f 125/235/111 80/164/67 79/163/72 
s 8
f 123/232/110 84/168/75 83/167/74 
s 16
f 122/280/109 124/282/60 123/232/110 
s 32
f 126/242/112 111/201/99 110/200/98 
# 48 polygons - 28 triangles

#
# object Bench_003
#

v  -14198.3008 660.6411 -2375.2031
v  -14032.8496 660.6411 -2375.2031
v  -14032.8496 660.6411 -2467.0066
v  -14198.3008 660.6411 -2467.0066
v  -14032.8496 211.2142 -2321.2217
v  -14032.8496 293.3038 -2330.4131
v  -14198.3008 0.0000 -2297.5723
v  -14032.8496 293.3038 -2422.2168
v  -14032.8496 0.0000 -2297.5723
v  -14032.8496 0.0000 -2389.3760
v  -14032.8496 211.2142 -2413.0254
v  -14198.3008 293.3038 -2422.2168
v  -14198.3008 0.0000 -2389.3760
v  -14198.3008 211.2142 -2413.0254
v  -10833.7578 211.2142 -2413.0254
v  -10833.7578 0.0000 -2389.3760
v  -10999.2090 0.0000 -2389.3760
v  -10999.2090 211.2142 -2413.0254
v  -10999.2090 293.3038 -2330.4131
v  -10999.2090 660.6411 -2375.2031
v  -10999.2090 660.6411 -2467.0066
v  -10999.2090 293.3038 -2422.2168
v  -10999.2090 0.0000 -2297.5723
v  -10999.2090 211.2143 -2321.2217
v  -14032.8496 293.3038 -2884.7656
v  -14032.8496 660.6411 -2869.1111
v  -14198.3008 660.6411 -2869.1111
v  -14198.3008 293.3038 -2884.7656
v  -14198.3008 211.2143 -2887.9783
v  -14198.3008 0.0000 -2896.2439
v  -14032.8496 0.0000 -2896.2439
v  -14032.8496 211.2142 -2887.9780
v  -14032.8496 293.3038 -2976.5693
v  -14032.8496 660.6411 -2960.9146
v  -14032.8496 0.0000 -2988.0476
v  -14032.8496 211.2142 -2979.7817
v  -14198.3008 660.6411 -2960.9146
v  -10999.2090 211.2143 -2887.9783
v  -10999.2090 0.0000 -2896.2439
v  -10833.7578 0.0000 -2896.2439
v  -10833.7578 211.2144 -2887.9780
v  -10999.2090 293.3038 -2884.7656
v  -10999.2090 660.6411 -2869.1111
v  -10999.2090 660.6411 -2960.9146
v  -10999.2090 293.3038 -2976.5693
v  -10999.2090 211.2142 -2979.7817
v  -10999.2090 0.0000 -2988.0476
v  -14555.7754 660.6411 -2329.8831
v  -10594.3008 660.6411 -2329.8831
v  -14555.7754 772.5669 -2329.8831
v  -10833.7578 660.6411 -2869.1111
v  -10833.7578 660.6411 -2960.9146
v  -10594.3008 660.6411 -3019.2446
v  -10594.3008 772.5669 -2329.8831
v  -14555.7754 772.5669 -3019.2446
v  -14555.7754 660.6411 -3019.2446
v  -10833.7578 293.3038 -2884.7654
v  -10833.7578 293.3038 -2422.2168
v  -10833.7578 660.6411 -2375.2031
v  -10833.7578 660.6411 -2467.0066
v  -10833.7578 0.0000 -2297.5723
v  -10833.7578 0.0000 -2988.0476
v  -14198.3008 0.0000 -2988.0476
v  -10594.3008 772.5669 -3019.2446
# 64 vertices

vn -0.5841 0.6074 0.5384
vn 0.5840 0.6077 0.5381
vn 0.5712 0.5441 -0.6145
vn -0.5712 0.5441 -0.6145
vn 0.3308 -0.2058 0.9210
vn 0.2614 0.3949 0.8807
vn -0.5720 -0.5461 0.6121
vn 0.6284 0.5171 -0.5811
vn 0.5718 -0.5470 0.6115
vn 0.5835 -0.6054 -0.5413
vn 0.5289 -0.6326 -0.5657
vn -0.9184 0.2623 -0.2962
vn -0.5835 -0.6054 -0.5413
vn -0.8912 -0.3381 -0.3023
vn 0.8912 -0.3381 -0.3023
vn -0.5289 -0.6327 -0.5657
vn -0.2614 0.3949 0.8807
vn -0.5840 0.6077 0.5381
vn -0.6284 0.5171 -0.5811
vn -0.5717 -0.5469 0.6116
vn -0.3308 -0.2058 0.9210
vn 0.5952 0.5565 0.5797
vn 0.5751 0.5660 0.5906
vn -0.5751 0.5660 0.5906
vn -0.9095 0.2877 0.3002
vn -0.8999 -0.3143 0.3023
vn -0.5794 -0.5875 0.5649
vn 0.5795 -0.5875 0.5648
vn 0.5602 -0.5970 0.5742
vn 0.2873 0.3348 -0.8974
vn 0.5796 0.5883 -0.5638
vn 0.5754 -0.5670 -0.5895
vn 0.3116 -0.2684 -0.9115
vn -0.5797 0.5882 -0.5639
vn -0.5602 -0.5970 0.5742
vn 0.5794 -0.5875 0.5649
vn 0.8999 -0.3143 0.3023
vn -0.5953 0.5565 0.5796
vn -0.5796 0.5883 -0.5638
vn -0.2873 0.3348 -0.8974
vn -0.3116 -0.2684 -0.9115
vn -0.5754 -0.5670 -0.5895
vn -0.5774 -0.5774 0.5774
vn 0.5774 -0.5774 0.5774
vn -0.5774 0.5774 0.5774
vn 0.5797 0.5882 -0.5639
vn 0.5774 -0.5774 -0.5774
vn 0.5774 0.5774 0.5774
vn -0.5774 0.5774 -0.5774
vn -0.5774 -0.5774 -0.5774
vn 0.9095 0.2877 0.3002
vn 0.9184 0.2623 -0.2962
vn 0.5841 0.6074 0.5384
vn 0.5720 -0.5461 0.6121
vn 0.5754 -0.5667 -0.5897
vn -0.5754 -0.5667 -0.5897
vn 0.5774 0.5774 -0.5774
# 57 vertex normals

vt 0.4286 0.8991 0.0000
vt 0.4286 0.9374 0.0000
vt 0.4084 0.9374 0.0000
vt 0.4084 0.8991 0.0000
vt 0.5332 0.9374 0.0000
vt 0.5142 0.9374 0.0000
vt 0.5824 0.8991 0.0000
vt 0.5142 0.9586 0.0000
vt 0.4286 0.9586 0.0000
vt 0.5824 0.9374 0.0000
vt 0.5824 0.9586 0.0000
vt 0.5332 0.9586 0.0000
vt 0.5142 0.8779 0.0000
vt 0.4286 0.8779 0.0000
vt 0.4286 0.8395 0.0000
vt 0.5142 0.8395 0.0000
vt 0.5332 0.8395 0.0000
vt 0.5824 0.8395 0.0000
vt 0.5824 0.8779 0.0000
vt 0.5332 0.8779 0.0000
vt 0.3285 0.9001 0.0000
vt 0.3777 0.9001 0.0000
vt 0.3777 0.9385 0.0000
vt 0.3285 0.9385 0.0000
vt 0.3094 0.8406 0.0000
vt 0.2240 0.8406 0.0000
vt 0.2303 0.8194 0.0000
vt 0.3094 0.8194 0.0000
vt 0.3285 0.8194 0.0000
vt 0.3777 0.8194 0.0000
vt 0.3777 0.8406 0.0000
vt 0.3285 0.8406 0.0000
vt 0.3094 0.7812 0.0000
vt 0.2239 0.7812 0.0000
vt 0.2239 0.7429 0.0000
vt 0.3094 0.7429 0.0000
vt 0.3285 0.7429 0.0000
vt 0.3777 0.7429 0.0000
vt 0.3777 0.7812 0.0000
vt 0.3285 0.7812 0.0000
vt 0.3094 0.6832 0.0000
vt 0.2239 0.6832 0.0000
vt 0.2239 0.6619 0.0000
vt 0.3094 0.6619 0.0000
vt 0.3285 0.6619 0.0000
vt 0.3777 0.6619 0.0000
vt 0.3777 0.6832 0.0000
vt 0.3285 0.6832 0.0000
vt 0.2239 0.7216 0.0000
vt 0.5332 0.6925 0.0000
vt 0.5824 0.6925 0.0000
vt 0.5824 0.7309 0.0000
vt 0.5310 0.7309 0.0000
vt 0.5142 0.8118 0.0000
vt 0.4286 0.8118 0.0000
vt 0.4286 0.7905 0.0000
vt 0.5142 0.7905 0.0000
vt 0.5332 0.7905 0.0000
vt 0.5824 0.7905 0.0000
vt 0.5824 0.8118 0.0000
vt 0.5332 0.8118 0.0000
vt 0.0458 0.5409 0.0000
vt 0.0458 0.5217 0.0000
vt 0.7495 0.5217 0.0000
vt 0.7495 0.5409 0.0000
vt 0.0458 0.6216 0.0000
vt 0.0458 0.6040 0.0000
vt 0.7495 0.6040 0.0000
vt 0.7495 0.6216 0.0000
vt 0.0394 0.2341 0.0000
vt 0.9612 0.2341 0.0000
vt 0.0394 0.2602 0.0000
vt 0.4084 0.7522 0.0000
vt 0.4286 0.7522 0.0000
vt 0.4084 0.7905 0.0000
vt 0.9896 0.4201 0.0000
vt 0.9612 0.2602 0.0000
vt 0.9896 0.2602 0.0000
vt 0.0113 0.2602 0.0000
vt 0.0394 0.4201 0.0000
vt 0.0113 0.4201 0.0000
vt 0.8223 0.8801 0.0000
vt 0.9313 0.8801 0.0000
vt 0.9313 0.8992 0.0000
vt 0.8223 0.8991 0.0000
vt 0.8223 0.8229 0.0000
vt 0.9313 0.8229 0.0000
vt 0.9313 0.8420 0.0000
vt 0.8223 0.8420 0.0000
vt 0.2287 0.8790 0.0000
vt 0.2037 0.8790 0.0000
vt 0.2037 0.8406 0.0000
vt 0.3777 0.8790 0.0000
vt 0.5078 0.7309 0.0000
vt 0.4286 0.7309 0.0000
vt 0.4286 0.6925 0.0000
vt 0.5142 0.6925 0.0000
vt 0.9313 0.7843 0.0000
vt 0.8223 0.7843 0.0000
vt 0.5824 0.7522 0.0000
vt 0.3777 0.7216 0.0000
vt 0.6046 0.7522 0.0000
vt 0.6046 0.7905 0.0000
vt 0.6046 0.8991 0.0000
vt 0.6046 0.9374 0.0000
vt 0.3999 0.8406 0.0000
vt 0.3999 0.8790 0.0000
vt 0.0458 0.5622 0.0000
vt 0.7495 0.5622 0.0000
vt 0.7495 0.5827 0.0000
vt 0.0458 0.5827 0.0000
vt 0.7495 0.6429 0.0000
vt 0.0458 0.6429 0.0000
vt 0.0458 0.4812 0.0000
vt 0.7495 0.4812 0.0000
vt 0.7495 0.5004 0.0000
vt 0.0458 0.5004 0.0000
vt 0.0458 0.4599 0.0000
vt 0.7495 0.4599 0.0000
vt 0.8010 0.8991 0.0000
vt 0.6917 0.8991 0.0000
vt 0.6917 0.8801 0.0000
vt 0.8010 0.8801 0.0000
vt 0.6917 0.8436 0.0000
vt 0.6917 0.8246 0.0000
vt 0.8010 0.8246 0.0000
vt 0.8010 0.8436 0.0000
vt 0.6917 0.7843 0.0000
vt 0.8010 0.7843 0.0000
vt 0.2037 0.7216 0.0000
vt 0.2037 0.6832 0.0000
vt 0.3999 0.6832 0.0000
vt 0.3999 0.7216 0.0000
vt 0.0394 0.0742 0.0000
vt 0.9612 0.0742 0.0000
vt 0.0394 0.0482 0.0000
vt 0.9612 0.0482 0.0000
vt 0.3094 0.9001 0.0000
vt 0.2303 0.9385 0.0000
vt 0.2239 0.9001 0.0000
vt 0.3094 0.9385 0.0000
vt 0.9614 0.4205 0.0000
# 142 texture coords

o Bench_003
g Bench_003
usemtl Bench_Comic
s 4
f 129/285/115 130/286/116 131/287/117 132/288/118 
s 8
f 133/289/119 134/290/120 129/285/115 135/291/121 
s 24
f 136/292/122 131/293/117 130/286/116 134/290/120 
s 16
f 133/289/119 137/294/123 138/295/124 139/296/125 
s 32
f 140/297/126 132/298/118 131/299/117 136/300/122 
f 139/301/125 138/302/124 141/303/127 142/304/128 
f 143/305/129 144/306/124 145/307/127 146/308/130 
s 64
f 147/309/131 148/310/132 149/311/118 150/312/133 
f 146/313/130 145/314/127 151/315/134 152/316/135 
s 8
f 153/317/136 154/318/137 155/319/138 156/320/139 
f 157/321/140 158/322/141 159/323/142 160/324/143 
s 16
f 161/325/144 162/326/145 154/327/137 153/328/136 
f 160/329/143 159/330/142 163/331/146 164/332/147 
s 64
f 156/320/139 155/319/138 165/333/148 
s 8
f 166/334/149 167/335/141 168/336/150 169/337/151 
s 64
f 170/338/152 171/339/138 172/340/153 173/341/154 
f 174/342/155 175/343/156 167/344/141 166/345/149 
s 132
f 139/346/125 136/347/122 150/348/133 146/349/130 
f 164/350/147 161/351/144 173/352/154 174/353/155 
s 8
f 176/354/157 177/355/158 178/356/159 
s off
f 179/357/137 180/358/160 172/340/153 171/359/138 
s 16
f 181/360/161 182/361/162 177/362/158 
s 64
f 176/363/157 178/356/159 183/364/163 
f 176/363/157 183/364/163 184/365/164 
s 1
f 150/366/133 170/367/152 166/368/149 146/369/130 
f 143/370/129 169/371/151 185/372/165 186/373/166 
s 2
f 186/373/166 185/372/165 170/367/152 150/366/133 
s 4
f 148/310/132 187/374/167 188/375/117 149/376/118 
s 8
f 189/377/168 187/374/167 147/309/131 152/316/135 
f 151/315/134 189/377/168 152/316/135 
f 185/378/165 179/379/137 171/380/138 170/381/152 
s 32
f 172/340/153 180/358/160 173/341/154 
s 2
f 166/382/149 169/371/151 143/370/129 146/383/130 
s 16
f 168/336/150 190/384/169 169/337/151 
s 64
f 158/322/141 157/321/140 191/385/170 
s 16
f 179/379/137 185/378/165 180/358/160 
s off
f 190/384/169 168/386/150 167/387/141 175/343/156 
s 2
f 135/291/121 141/388/127 138/389/124 137/294/123 
f 151/315/134 145/390/127 144/391/124 189/377/168 
s 4
f 160/392/143 166/393/149 170/394/152 153/395/136 
s 128
f 164/350/147 174/353/155 166/396/149 160/397/143 
f 153/395/136 170/394/152 173/352/154 161/351/144 
s 4
f 133/398/119 152/399/135 147/400/131 134/401/120 
s 128
f 139/402/125 146/403/130 152/399/135 133/398/119 
f 134/401/120 147/400/131 150/348/133 136/347/122 
s 64
f 135/291/121 142/304/128 141/303/127 
s 1
f 139/404/125 160/405/143 153/406/136 136/407/122 
s 64
f 157/321/140 156/320/139 165/333/148 191/385/170 
s 32
f 180/358/160 190/384/169 174/342/155 173/341/154 
s 64
f 140/297/126 142/304/128 135/291/121 129/285/115 
s 1
f 156/408/139 157/409/140 142/410/128 140/411/126 
s 2
f 157/409/140 160/412/143 139/413/125 142/410/128 
f 156/408/139 140/411/126 136/407/122 153/406/136 
s 32
f 163/331/146 191/385/170 164/332/147 
s off
f 162/326/145 165/333/148 155/414/138 154/415/137 
s 32
f 162/326/145 161/325/144 165/333/148 
s off
f 191/385/170 163/331/146 159/416/142 158/417/141 
s 2
f 177/355/158 176/354/157 184/418/164 
s 8
f 182/361/162 178/356/159 177/355/158 
s 2
f 184/418/164 181/419/161 177/355/158 
s 32
f 183/420/163 192/421/171 184/418/164 
f 192/421/171 181/419/161 184/418/164 
s 16
f 186/422/166 187/374/167 189/377/168 143/305/129 
s 32
f 149/423/118 188/424/117 186/422/166 150/425/133 
f 161/325/144 164/332/147 191/385/170 165/333/148 
s 64
f 132/298/118 140/297/126 129/285/115 
s 24
f 129/285/115 134/290/120 130/286/116 
s 16
f 192/426/171 182/361/162 181/360/161 
s 4
f 178/356/159 182/361/162 183/364/163 
f 183/364/163 182/361/162 192/426/171 
s 8
f 135/291/121 137/294/123 133/289/119 
s 16
f 190/384/169 180/358/160 185/378/165 169/337/151 
f 189/377/168 144/306/124 143/305/129 
s 8
f 187/374/167 148/310/132 147/309/131 
s 16
f 186/422/166 188/424/117 187/374/167 
s 32
f 190/384/169 175/343/156 174/342/155 
# 48 polygons - 28 triangles

